<?xml version="1.0" standalone="no"?>
<!DOCTYPE svg PUBLIC "-//W3C//DTD SVG 20010904//EN" "http://www.w3.org/TR/2001/REC-SVG-20010904/DTD/svg10.dtd">
<!-- Created using Krita: https://krita.org -->
<svg xmlns="http://www.w3.org/2000/svg" 
    xmlns:xlink="http://www.w3.org/1999/xlink"
    xmlns:krita="http://krita.org/namespaces/svg/krita"
    xmlns:sodipodi="http://sodipodi.sourceforge.net/DTD/sodipodi-0.dtd"
    width="841.92pt"
    height="841.92pt"
    viewBox="0 0 841.92 841.92">
<defs/>
<path id="shape0" transform="translate(124.350043534542, 164.283129207008)" fill="#1d5b91ff" stroke="#1d5b91ff" stroke-width="9.6" stroke-linecap="square" stroke-linejoin="bevel" d="M137.453 156.668C195.55 127.619 110.517 44.945 168.189 14.4129C252.014 -29.9652 236.976 39.6491 290.897 68.535C344.132 97.0538 395.002 86.2646 451.863 86.2646C478.014 86.2646 515.43 90.5003 529.78 116.592C556.604 165.363 486.646 196.724 496.654 246.764C509.111 309.05 660.539 327.299 578.102 415.421C559.056 435.781 495.66 450.859 468.344 451.974C347.211 456.919 419.269 321.017 311.426 326.548C212.329 331.63 171.641 428.103 101.47 431.526C73.6856 432.881 54.7675 425.562 32.4173 409.597C-37.5098 359.649 76.5969 316.205 68.8097 261.695C64.1118 228.81 -16.422 197.983 3.02339 164.648C21.726 132.587 111.998 171.214 137.453 156.668Z" sodipodi:nodetypes="cccccccccccccc"/>
</svg>
