<?xml version="1.0" standalone="no"?>
<!DOCTYPE svg PUBLIC "-//W3C//DTD SVG 20010904//EN" "http://www.w3.org/TR/2001/REC-SVG-20010904/DTD/svg10.dtd">
<!-- Created using Krita: https://krita.org -->
<svg xmlns="http://www.w3.org/2000/svg" 
    xmlns:xlink="http://www.w3.org/1999/xlink"
    xmlns:krita="http://krita.org/namespaces/svg/krita"
    xmlns:sodipodi="http://sodipodi.sourceforge.net/DTD/sodipodi-0.dtd"
    width="841.92pt"
    height="841.92pt"
    viewBox="0 0 841.92 841.92">
<defs/>
<path id="shape0" transform="translate(90.2399993090061, 113.279999132582)" fill="#1d5b91ff" stroke="#1d5b91ff" stroke-width="9.6" stroke-linecap="square" stroke-linejoin="bevel" d="M281.28 167.04L115.2 36.48L184.32 211.2L188.16 207.36L0 220.8L163.2 297.6L167.04 295.68L67.2 492.48L69.12 491.52L210.24 380.16L215.04 378.24L265.92 648L270.72 641.28L329.28 448.32L332.16 445.44L475.2 665.28L480 660.48L470.4 453.12L472.32 451.2L624.96 494.4L633.6 489.6L541.44 393.6L685.44 303.36L691.2 299.52L570.24 259.2L683.52 140.16L687.36 138.24L506.88 173.76L512.64 170.88L490.56 2.88L491.52 0L415.68 146.88L420.48 145.92L324.48 17.28L281.28 167.04" sodipodi:nodetypes="ccccccccccccccccccccccccccccccccccc"/>
</svg>
